<svg xmlns="http://www.w3.org/2000/svg" xmlns:xlink="http://www.w3.org/1999/xlink" width="1100" height="335" viewBox="0 0 1100 335" role="img"><title>Activity rhythm and languages</title><desc>Monthly contribution counts and public original repositories grouped by primary language.</desc><style>text{font-family:-apple-system,BlinkMacSystemFont,"Segoe UI",Roboto,Helvetica,Arial,sans-serif;fill:#edf5ff}.muted{fill:#8eabc3}.mono{font-family:"SF Mono",Monaco,"Cascadia Code","Roboto Mono",Consolas,monospace;letter-spacing:1.5px}</style><rect width="1100" height="335" rx="24" fill="#07131f" stroke="#1c3a50" stroke-width="1.5"/><text x="36" y="40" font-size="15" class="mono">THE BUILD RHYTHM</text><text x="36" y="67" font-size="14" class="muted">Contributions per month</text><text x="700" y="40" font-size="15" class="mono">TOOLS OF THE TRADE</text><text x="700" y="67" font-size="14" class="muted">Public original repos · primary language</text><rect x="38" y="248" width="28" height="2" rx="4" fill="#0caaf5"/><text x="38" y="239" font-size="10" class="muted">0</text><text x="38" y="274" font-size="11" class="muted">10</text><rect x="84" y="248" width="28" height="2" rx="4" fill="#0caaf5"/><text x="84" y="239" font-size="10" class="muted">0</text><text x="84" y="274" font-size="11" class="muted">11</text><rect x="130" y="248" width="28" height="2" rx="4" fill="#0caaf5"/><text x="130" y="239" font-size="10" class="muted">0</text><text x="130" y="274" font-size="11" class="muted">12</text><rect x="176" y="248" width="28" height="2" rx="4" fill="#0caaf5"/><text x="176" y="239" font-size="10" class="muted">0</text><text x="176" y="274" font-size="11" class="muted">01</text><rect x="222" y="248" width="28" height="2" rx="4" fill="#0caaf5"/><text x="222" y="239" font-size="10" class="muted">0</text><text x="222" y="274" font-size="11" class="muted">02</text><rect x="268" y="248" width="28" height="2" rx="4" fill="#0caaf5"/><text x="268" y="239" font-size="10" class="muted">0</text><text x="268" y="274" font-size="11" class="muted">03</text><rect x="314" y="221.2520325203252" width="28" height="26.747967479674795" rx="4" fill="#0caaf5"/><text x="314" y="212.2520325203252" font-size="10" class="muted">47</text><text x="314" y="274" font-size="11" class="muted">04</text><rect x="360" y="200.1951219512195" width="28" height="47.80487804878049" rx="4" fill="#0caaf5"/><text x="360" y="191.1951219512195" font-size="10" class="muted">84</text><text x="360" y="274" font-size="11" class="muted">05</text><rect x="406" y="233.2032520325203" width="28" height="14.796747967479675" rx="4" fill="#0caaf5"/><text x="406" y="224.2032520325203" font-size="10" class="muted">26</text><text x="406" y="274" font-size="11" class="muted">06</text><rect x="452" y="248" width="28" height="2" rx="4" fill="#0caaf5"/><text x="452" y="239" font-size="10" class="muted">0</text><text x="452" y="274" font-size="11" class="muted">07</text><rect x="498" y="108" width="28" height="140" rx="4" fill="#0caaf5"/><text x="498" y="99" font-size="10" class="muted">246</text><text x="498" y="274" font-size="11" class="muted">08</text><rect x="544" y="163.2032520325203" width="28" height="84.79674796747967" rx="4" fill="#0caaf5"/><text x="544" y="154.2032520325203" font-size="10" class="muted">149</text><text x="544" y="274" font-size="11" class="muted">09</text><rect x="590" y="158.65040650406505" width="28" height="89.34959349593495" rx="4" fill="#0caaf5"/><text x="590" y="149.65040650406505" font-size="10" class="muted">157</text><text x="590" y="274" font-size="11" class="muted">10</text><text x="700" y="105" font-size="14" class="">Python</text><text x="1030" y="105" font-size="14" class="muted">10</text><rect x="800" y="95" width="210" height="10" rx="5" fill="#09a9f4"/><text x="700" y="142" font-size="14" class="">Swift</text><text x="1030" y="142" font-size="14" class="muted">8</text><rect x="800" y="132" width="168" height="10" rx="5" fill="#57c6f7"/><text x="700" y="179" font-size="14" class="">TypeScript</text><text x="1030" y="179" font-size="14" class="muted">6</text><rect x="800" y="169" width="126" height="10" rx="5" fill="#90e0ff"/><text x="700" y="216" font-size="14" class="">JavaScript</text><text x="1030" y="216" font-size="14" class="muted">4</text><rect x="800" y="206" width="84" height="10" rx="5" fill="#347cbb"/><text x="700" y="253" font-size="14" class="">Rust</text><text x="1030" y="253" font-size="14" class="muted">3</text><rect x="800" y="243" width="63" height="10" rx="5" fill="#506a86"/><text x="38" y="313" font-size="12" class="muted">Snapshot 2026-10-10 · 58 public repositories · 48 originals · 10 forks</text></svg>